{"title":"Real Steel 2011 DVDRip XVid MAX - Stumpie1971","uid":6931817,"size":1520825174,"categoryP":"video","categoryS":"movies","magnet":"?xt=urn:btih:0c7617108f9de99cb9d5c5029bab4c331dee805f&amp;dn=Real+Steel+2011+DVDRip+XVid+MAX+-+Stumpie1971&amp;tr=udp%3A%2F%2Ftracker.openbittorrent.com%3A80&amp;tr=udp%3A%2F%2Fopen.demonii.com%3A1337&amp;tr=udp%3A%2F%2Ftracker.coppersurfer.tk%3A6969&amp;tr=udp%3A%2F%2Fexodus.desync.com%3A6969","seeders":0,"leechers":1,"uploader":"stumpie1971","files":-1,"time":1325684706,"description":" &lt;a href=&quot; http://www.hotimg.com/direct/6d5Kqx6.jpg&quot; rel=&quot;nofollow&quot; target=&quot;_NEW&quot;&gt; http://www.hotimg.com/direct/6d5Kqx6.jpg&lt;/a&gt;\n\nScreens:\n  &lt;a href=&quot;\nhttp://www.hotimg.com/direct/TyfKQe3.jpg&quot; rel=&quot;nofollow&quot; target=&quot;_NEW&quot;&gt;\nhttp://www.hotimg.com/direct/TyfKQe3.jpg&lt;/a&gt;\n  &lt;a href=&quot;\nhttp://www.hotimg.com/direct/cXgjMfQ.jpg&quot; rel=&quot;nofollow&quot; target=&quot;_NEW&quot;&gt;\nhttp://www.hotimg.com/direct/cXgjMfQ.jpg&lt;/a&gt;\n  &lt;a href=&quot;\nhttp://www.hotimg.com/direct/Fvq6qeU.jpg&quot; rel=&quot;nofollow&quot; target=&quot;_NEW&quot;&gt;\nhttp://www.hotimg.com/direct/Fvq6qeU.jpg&lt;/a&gt;\n  &lt;a href=&quot;\nhttp://www.hotimg.com/direct/wxF5KrY.jpg&quot; rel=&quot;nofollow&quot; target=&quot;_NEW&quot;&gt;\nhttp://www.hotimg.com/direct/wxF5KrY.jpg&lt;/a&gt;\n\nAlternative:\n  &lt;a href=&quot;\nhttp://www.postimg.com/image/57000/photo-56568.jpg&quot; rel=&quot;nofollow&quot; target=&quot;_NEW&quot;&gt;\nhttp://www.postimg.com/image/57000/photo-56568.jpg&lt;/a&gt;\n  &lt;a href=&quot;\nhttp://www.postimg.com/image/57000/photo-56569.jpg&quot; rel=&quot;nofollow&quot; target=&quot;_NEW&quot;&gt;\nhttp://www.postimg.com/image/57000/photo-56569.jpg&lt;/a&gt;\n  &lt;a href=&quot;\nhttp://www.postimg.com/image/57000/photo-56570.jpg&quot; rel=&quot;nofollow&quot; target=&quot;_NEW&quot;&gt;\nhttp://www.postimg.com/image/57000/photo-56570.jpg&lt;/a&gt;\n  &lt;a href=&quot;\nhttp://www.postimg.com/image/57000/photo-56571.jpg&quot; rel=&quot;nofollow&quot; target=&quot;_NEW&quot;&gt;\nhttp://www.postimg.com/image/57000/photo-56571.jpg&lt;/a&gt;\n\nScreenCaps:\n  &lt;a href=&quot;\nhttp://www.postimg.com/image/57000/photo-56574.jpg&quot; rel=&quot;nofollow&quot; target=&quot;_NEW&quot;&gt;\nhttp://www.postimg.com/image/57000/photo-56574.jpg&lt;/a&gt;\n\nReal Steel (2011) DVDRip XviD-MAX\nFormat                           : AVI\nFormat/Info                      : Audio Video Interleave\nFormat profile                   : OpenDML\nFile size                        : 1.41 GiB\nDuration                         : 2h 6mn\nOverall bit rate                 : 1 588 Kbps\nWriting application              : VirtualDubMod 1.5.10.2 (build 2542/release)\nWriting library                  : VirtualDubMod build 2542/release\nOriginal source form             : MAX TORRENTZ\nCopyright                        : SIGISMUNT\n\nVideo\nID                               : 0\nFormat                           : MPEG-4 Visual\nFormat profile                   : AdvancedSimple@L5\nFormat settings, BVOP            : Yes\nFormat settings, QPel            : No\nFormat settings, GMC             : No warppoints\nFormat settings, Matrix          : Default (H.263)\nCodec ID                         : XVID\nCodec ID/Hint                    : XviD\nDuration                         : 2h 6mn\nBit rate                         : 1 262 Kbps\nWidth                            : 720 pixels\nHeight                           : 304 pixels\nDisplay aspect ratio             : 2.35:1\nFrame rate                       : 23.976 fps\nResolution                       : 24 bits\nColorimetry                      : 4:2:0\nScan type                        : Progressive\nBits/(Pixel*Frame)               : 0.241\nStream size                      : 1.12 GiB (80%)\nWriting library                  : XviD 1.2.1 (UTC 2008-12-04)\n\nAudio\nID                               : 1\nFormat                           : AC-3\nFormat/Info                      : Audio Coding 3\nCodec ID                         : 2000\nDuration                         : 2h 6mn\nBit rate mode                    : Constant\nBit rate                         : 320 Kbps\nChannel(s)                       : 6 channels\nChannel positions                : Front: L C R, Surround: L R, LFE\nSampling rate                    : 48.0 KHz\nStream size                      : 290 MiB (20%)\nAlignment                        : Aligned on interleaves\nInterleave, duration             : 64 ms (1.53 video frames)\nInterleave, preload duration     : 192 ms\n  &lt;a href=&quot;\nhttp://www.imdb.com/title/tt0433035/&quot; rel=&quot;nofollow&quot; target=&quot;_NEW&quot;&gt;\nhttp://www.imdb.com/title/tt0433035/&lt;/a&gt;\n\nSource: DVD (perfect a/v/sync quality,sample included)\nThis torrent is not seedbox supported,please seed it to the MAX","torrent":{"xt":"urn:btih:0c7617108f9de99cb9d5c5029bab4c331dee805f","amp;dn":"Real+Steel+2011+DVDRip+XVid+MAX+-+Stumpie1971","amp;tr":["udp%3A%2F%2Ftracker.openbittorrent.com%3A80","udp%3A%2F%2Fopen.demonii.com%3A1337","udp%3A%2F%2Ftracker.coppersurfer.tk%3A6969","udp%3A%2F%2Fexodus.desync.com%3A6969"],"infoHash":"0c7617108f9de99cb9d5c5029bab4c331dee805f","infoHashBuffer":{"type":"Buffer","data":[12,118,23,16,143,157,233,156,185,213,197,2,155,171,76,51,29,238,128,95]},"announce":[],"urlList":[]}}